<?xml version="1.0" encoding="iso-8859-1"?>
<!-- Generator: Adobe Illustrator 19.0.0, SVG Export Plug-In . SVG Version: 6.00 Build 0)  -->
<svg version="1.1" id="Capa_1" xmlns="http://www.w3.org/2000/svg" xmlns:xlink="http://www.w3.org/1999/xlink" x="0px" y="0px"
	 viewBox="0 0 482.448 482.448" style="enable-background:new 0 0 482.448 482.448;" xml:space="preserve">
<g>
	<g>
		<path d="M386.448,273.224v48h64v-48H386.448z M434.448,305.224h-32v-16h32V305.224z"/>
	</g>
</g>
<g>
	<g>
		<path d="M146.448,121.224v72h96v-72H146.448z M209.064,137.224l-14.616,10.232l-14.624-10.232H209.064z M162.448,144.592
			l18.048,12.632l-18.048,12.632V144.592z M179.824,177.224l14.624-10.232l14.624,10.232H179.824z M226.448,169.864l-18.048-12.64
			l18.048-12.632V169.864z"/>
	</g>
</g>
<g>
	<g>
		<path d="M482.448,113.224v-64c0-26.51-21.49-48-48-48c-26.51,0-48,21.49-48,48v64c0.024,23.404,16.923,43.379,40,47.28v66.688
			l-48.728-13.928l11.2-11.2l-85.36-119.44L194.448,40.656L85.336,82.624L0,202.088l18.448,18.456v148.68h464V243.192l-40-11.432
			v-71.256C465.525,156.603,482.424,136.628,482.448,113.224z M145.296,289.224l-22.848,41.128v-82.256L145.296,289.224z
			 M128.048,225.224h52.8l-26.4,47.528L128.048,225.224z M128.048,353.224l26.4-47.528l26.4,47.528H128.048z M186.448,330.352
			L163.6,289.224l22.848-41.128V330.352z M225.296,289.224l-22.848,41.128v-82.256L225.296,289.224z M208.048,225.224h52.8
			l-26.4,47.528L208.048,225.224z M208.048,353.224l26.4-47.528l26.4,47.528H208.048z M266.448,330.352L243.6,289.224l22.848-41.128
			V330.352z M354.448,353.224h-72v-144h-176v144h-72v-116.68l1.016,1.016L119.6,119.776l74.848-29.936l74.848,29.936l84.136,117.784
			l1.016-1.016V353.224z M360.12,208.232l-5.672-1.6v4.848L279.6,106.68l-85.152-34.072l-85.152,34.064L33.432,212.888
			L20.896,200.36L95.56,95.824l98.888-38.032l98.888,38.032L368,200.352L360.12,208.232z M466.448,255.256v97.968h-96V227.832
			L466.448,255.256z M426.448,97.224v46.864c-14.085-3.637-23.945-16.317-24-30.864v-64c0-17.673,14.327-32,32-32
			c17.673,0,32,14.327,32,32v64c-0.055,14.547-9.914,27.227-24,30.864V97.224H426.448z"/>
	</g>
</g>
<g>
	<g>
		<path d="M114.448,433.224v-16h-16v-16h-16v16h-16v-16h-16v16h-16v-16h-16v16h-16v16h16v16h-16v16h16v16h16v-16h16v16h16v-16h16v16
			h16v-16h16v-16h-16v-16H114.448z M50.448,449.224h-16v-16h16V449.224z M82.448,449.224h-16v-16h16V449.224z"/>
	</g>
</g>
<g>
	<g>
		<path d="M482.448,433.224v-16h-16v-16h-16v16h-16v-16h-16v16h-16v-16h-16v16h-16v-16h-16v16h-16v-16h-16v16h-16v-16h-16v16h-16v16
			h16v16h-16v16h16v16h16v-16h16v16h16v-16h16v16h16v-16h16v16h16v-16h16v16h16v-16h16v16h16v-16h16v-16h-16v-16H482.448z
			 M322.448,449.224h-16v-16h16V449.224z M354.448,449.224h-16v-16h16V449.224z M386.448,449.224h-16v-16h16V449.224z
			 M418.448,449.224h-16v-16h16V449.224z M450.448,449.224h-16v-16h16V449.224z"/>
	</g>
</g>
<g>
</g>
<g>
</g>
<g>
</g>
<g>
</g>
<g>
</g>
<g>
</g>
<g>
</g>
<g>
</g>
<g>
</g>
<g>
</g>
<g>
</g>
<g>
</g>
<g>
</g>
<g>
</g>
<g>
</g>
</svg>
